<svg version="1.1" xmlns="http://www.w3.org/2000/svg" width="1024" height="1024">

<path d="M0 0 C0.64662598 0.19335938 1.29325195 0.38671875 1.95947266 0.5859375 C22.73724718 6.8731184 39.43340732 18.32451569 54.8125 33.4375 C55.41787598 34.02877686 56.02325195 34.62005371 56.64697266 35.22924805 C57.20304199 35.79168213 57.75911133 36.35411621 58.33203125 36.93359375 C59.07030151 37.6769397 59.07030151 37.6769397 59.82348633 38.43530273 C61.18991086 40.2525708 61.59114056 41.78137593 62 44 C55.15643111 50.31853318 47.94465453 56.096476 40.56445312 61.76757812 C39.11543093 62.90906752 37.71886735 64.11630857 36.328125 65.328125 C34 67 34 67 30 67 C28.4296875 65.56640625 28.4296875 65.56640625 26.875 63.5625 C16.25243859 50.88251618 1.80799682 40.96061571 -15 39 C-35.9875924 37.45853841 -53.3469675 41.63987191 -69.875 55.3125 C-83.12791225 66.75304818 -91.49480813 83.53977429 -93 101 C-93.79084616 114.77229651 -91.66575612 127.83408445 -85 140 C-84.50757813 140.90234375 -84.01515625 141.8046875 -83.5078125 142.734375 C-73.3220391 159.9868333 -57.92527277 169.80001349 -39 175 C-23.1897109 178.93366045 -5.76435687 175.2286098 8.3203125 167.6328125 C16.57730535 162.60158362 24.52164125 156.05640992 30 148 C33.78475792 148.5362388 35.95235896 149.40496816 38.85546875 151.87890625 C39.55615479 152.46720215 40.25684082 153.05549805 40.97875977 153.66162109 C41.70764404 154.28891113 42.43652832 154.91620117 43.1875 155.5625 C44.70009151 156.83774899 46.21311088 158.11249065 47.7265625 159.38671875 C48.45649414 160.00595215 49.18642578 160.62518555 49.93847656 161.26318359 C52.61074219 163.51454523 55.32749941 165.70032188 58.0625 167.875 C58.83722656 168.49117187 59.61195313 169.10734375 60.41015625 169.7421875 C60.93480469 170.15726563 61.45945312 170.57234375 62 171 C61.50648576 175.24019379 58.87565501 177.72161595 56.0625 180.6875 C55.56596924 181.21641846 55.06943848 181.74533691 54.55786133 182.2902832 C34.18700814 203.74369247 7.44524205 217.42091769 -22.45361328 218.28344727 C-49.13944359 218.62106302 -74.89836067 209.66195319 -95 192 C-95.80566406 191.33742188 -96.61132812 190.67484375 -97.44140625 189.9921875 C-118.0131321 172.5432432 -130.95588983 146.68853667 -134 120 C-136.19832739 85.8531413 -128.45524105 56.89586698 -105.5625 30.8125 C-104.05641626 29.1944776 -102.5361585 27.58949734 -101 26 C-100.360625 25.33484375 -99.72125 24.6696875 -99.0625 23.984375 C-74.13202952 0.02775102 -33.09944456 -10.43996818 0 0 Z " fill="#F17201" transform="translate(224,395)" data-index="1" style="visibility: visible; opacity: 1;"></path>
<path d="M0 0 C2.95379912 2.06813812 5.64057596 4.26491348 8 7 C8 7.66 8 8.32 8 9 C8.66 9 9.32 9 10 9 C10.24363281 8.40445312 10.48726562 7.80890625 10.73828125 7.1953125 C13.55075728 2.30177835 19.35379758 -0.34151903 24.4375 -2.375 C33.33094949 -3.9352543 40.90796711 -3.26978716 49 1 C55.89107112 5.9057039 58.9349868 11.93898365 61 20 C61.48378986 24.31110043 61.47019532 28.5530281 61.390625 32.88671875 C61.38496521 34.06974075 61.37930542 35.25276276 61.37347412 36.47163391 C61.35127408 40.21068628 61.30110688 43.94874248 61.25 47.6875 C61.22991392 50.23891835 61.21166687 52.79035188 61.1953125 55.34179688 C61.15146274 61.56157551 61.08254831 67.78061949 61 74 C54.4 74 47.8 74 41 74 C40.98541748 72.5773584 40.97083496 71.1547168 40.95581055 69.68896484 C40.89774184 64.3996495 40.82050874 59.11075603 40.73754883 53.82177734 C40.70433994 51.53473774 40.67629549 49.24761697 40.65356445 46.96044922 C40.6199449 43.66859422 40.56762376 40.37748028 40.51171875 37.0859375 C40.50532883 36.06696381 40.4989389 35.04799011 40.49235535 33.99813843 C40.362858 27.71407467 39.73562991 23.05127952 35.375 18.1875 C31.69028698 16.34514349 28.10267993 15.88583847 24 16 C19.25782193 17.61055104 16.7846746 19.87455614 14 24 C13.0534586 26.83962421 12.85005776 28.70406529 12.79467773 31.6550293 C12.77473251 32.59577805 12.75478729 33.53652679 12.73423767 34.50578308 C12.71752518 35.51836685 12.70081268 36.53095062 12.68359375 37.57421875 C12.6524221 39.13267265 12.6524221 39.13267265 12.62062073 40.72261047 C12.55519344 44.04417253 12.49627179 47.36581416 12.4375 50.6875 C12.39430831 52.9381593 12.35069381 55.18881052 12.30664062 57.43945312 C12.19951897 62.95955369 12.09823211 68.47973437 12 74 C5.4 74 -1.2 74 -8 74 C-8.0093457 72.51677246 -8.01869141 71.03354492 -8.02832031 69.50537109 C-8.0682495 63.99237242 -8.1340176 58.47993004 -8.20751953 52.96728516 C-8.23571195 50.58324337 -8.25693503 48.19910842 -8.27099609 45.81494141 C-8.29244869 42.38395548 -8.33911364 38.95408776 -8.390625 35.5234375 C-8.39185364 34.46071625 -8.39308228 33.397995 -8.39434814 32.30307007 C-8.51364872 26.24938838 -8.92929335 22.5963563 -13 18 C-16.81880503 15.49049955 -20.48298736 15.8301543 -24.8515625 16.46875 C-28.10534732 17.27332225 -29.772793 18.51076864 -32 21 C-35.19500323 26.94123446 -35.46776771 32.07381356 -35.51171875 38.74609375 C-35.52966995 39.75720718 -35.54762115 40.76832062 -35.56611633 41.81007385 C-35.62002042 45.0191743 -35.65405149 48.22812769 -35.6875 51.4375 C-35.7206906 53.62176516 -35.75518186 55.80601098 -35.79101562 57.99023438 C-35.87816873 63.32684177 -35.93840867 68.66279229 -36 74 C-42.6 74 -49.2 74 -56 74 C-56 49.25 -56 24.5 -56 -1 C-49.73 -1 -43.46 -1 -37 -1 C-36.67 1.64 -36.34 4.28 -36 7 C-35.52691406 6.52949219 -35.05382812 6.05898438 -34.56640625 5.57421875 C-24.64087845 -3.77086883 -12.53765012 -5.77734918 0 0 Z " fill="#223135" transform="translate(517,484)" data-index="2" style="visibility: visible; opacity: 1;"></path>
<path d="M0 0 C5.44749052 4.14880878 10.14679351 8.81925165 13.44140625 14.859375 C12.29640756 18.29437108 11.87165189 18.47601319 8.84375 20.12109375 C8.12509766 20.51748047 7.40644531 20.91386719 6.66601562 21.32226562 C5.53389648 21.92844727 5.53389648 21.92844727 4.37890625 22.546875 C3.62029297 22.96259766 2.86167969 23.37832031 2.08007812 23.80664062 C0.20507484 24.83258582 -1.67618718 25.84707744 -3.55859375 26.859375 C-4.31785156 26.09753906 -5.07710938 25.33570313 -5.859375 24.55078125 C-13.31719206 17.11454977 -20.17981741 11.728226 -31.18359375 11.484375 C-41.04156046 11.91418789 -48.87356535 14.71827741 -55.80859375 21.984375 C-62.95387001 31.04286731 -63.42782904 41.26209474 -62.30859375 52.33203125 C-60.81224545 61.16983841 -56.03347661 68.44730332 -48.78125 73.60546875 C-42.67094167 77.0525847 -38.08286096 78.3721316 -31.12109375 78.234375 C-30.36755615 78.22204834 -29.61401855 78.20972168 -28.83764648 78.19702148 C-17.6639206 77.85842373 -12.53527549 73.65625449 -4.55859375 65.859375 C-0.02012177 67.20865045 3.76072871 69.05096848 7.81640625 71.484375 C8.87601562 72.11601563 9.935625 72.74765625 11.02734375 73.3984375 C11.82398438 73.88054687 12.620625 74.36265625 13.44140625 74.859375 C10.66854036 83.14847409 3.68523737 88.95520067 -3.87402344 92.95751953 C-17.07854224 99.53840087 -33.657616 101.98784102 -48.078125 97.7265625 C-51.73961448 96.41606375 -55.14825645 94.73011488 -58.55859375 92.859375 C-59.85990234 92.15748047 -59.85990234 92.15748047 -61.1875 91.44140625 C-72.80518558 84.42361648 -79.73482654 72.84836727 -83.73046875 60.12890625 C-86.55340861 47.8335991 -86.2437581 32.17924367 -80.55859375 20.859375 C-80.06101562 19.83714844 -79.5634375 18.81492187 -79.05078125 17.76171875 C-72.02080513 4.56825194 -60.59576145 -3.10066093 -46.60473633 -7.79638672 C-30.60609454 -12.24607719 -13.60948164 -9.27108793 0 0 Z " fill="#223135" transform="translate(405.55859375,461.140625)" data-index="3" style="visibility: visible; opacity: 1;"></path>
<path d="M0 0 C7.29983962 5.9834751 11.28606711 13.20585757 14.24609375 22.0859375 C14.24609375 27.3659375 14.24609375 32.6459375 14.24609375 38.0859375 C-3.90390625 38.0859375 -22.05390625 38.0859375 -40.75390625 38.0859375 C-38.09186269 47.03296543 -38.09186269 47.03296543 -31.75390625 52.0859375 C-25.91168567 54.87359605 -20.10483298 54.83743927 -13.75390625 54.0859375 C-10.92539982 53.03750445 -8.46714054 51.81164616 -5.875 50.27734375 C-2.16702576 48.19459579 -2.16702576 48.19459579 0.24609375 48.0859375 C3.04296875 49.73828125 3.04296875 49.73828125 5.99609375 52.0234375 C6.9809375 52.77496094 7.96578125 53.52648437 8.98046875 54.30078125 C9.728125 54.88988281 10.47578125 55.47898437 11.24609375 56.0859375 C9.32188706 61.77196827 6.28030684 64.05207398 1.24609375 67.0859375 C-10.52645826 72.65498905 -23.63554286 74.37978489 -36.25390625 70.4609375 C-46.10336546 66.60738711 -55.15315919 60.29672426 -59.62890625 50.3984375 C-63.12099826 40.11616658 -63.69016725 26.74697168 -59.81640625 16.5234375 C-54.30826052 5.46072909 -45.54989902 -2.00708214 -34.06640625 -6.2890625 C-21.5868498 -8.68412889 -10.47271487 -7.27890821 0 0 Z " fill="#233236" transform="translate(649.75390625,487.9140625)" data-index="4" style="visibility: visible; opacity: 1;"></path>
<path d="M0 0 C7.07608788 5.83990385 10.89608333 12.90884786 11.97570801 22.11581421 C12.08350046 25.27618831 12.07602449 28.41262957 12.015625 31.57421875 C12.00996521 32.71284866 12.00430542 33.85147858 11.99847412 35.02461243 C11.97628579 38.62102331 11.92612144 42.21639601 11.875 45.8125 C11.85491238 48.26756362 11.8366656 50.72264304 11.8203125 53.17773438 C11.77647839 59.16054937 11.70757282 65.14259937 11.625 71.125 C5.355 71.125 -0.915 71.125 -7.375 71.125 C-7.87 67.66 -7.87 67.66 -8.375 64.125 C-8.83648438 64.52332031 -9.29796875 64.92164063 -9.7734375 65.33203125 C-16.97620304 71.18249891 -24.54084779 73.8195841 -33.8671875 73.46875 C-41.9970746 72.35437295 -49.0653732 68.38463356 -54.375 62.125 C-57.60802583 55.92308443 -57.64537424 47.52186415 -55.72265625 40.8671875 C-52.11891505 33.96903911 -45.5369122 29.59911513 -38.375 27.125 C-32.46935041 25.76287545 -26.52299005 26.01428641 -20.5 26.0625 C-18.89511719 26.06926758 -18.89511719 26.06926758 -17.2578125 26.07617188 C-14.63015014 26.08790251 -12.00260462 26.10431772 -9.375 26.125 C-9.98050643 19.53246369 -10.66813347 16.83186653 -15.375 12.125 C-19.89918985 9.86290508 -25.49587217 10.4356751 -30.375 11.125 C-33.54870047 12.69225949 -36.2178842 14.45855434 -39.03515625 16.59375 C-41.375 18.125 -41.375 18.125 -45.375 18.125 C-47.296875 16.15625 -47.296875 16.15625 -49.125 13.625 C-50.04539062 12.37203125 -50.04539062 12.37203125 -50.984375 11.09375 C-51.44328125 10.4440625 -51.9021875 9.794375 -52.375 9.125 C-49.96795579 2.83071773 -42.89014702 -0.21623386 -37.08203125 -2.95703125 C-25.01588532 -7.69480228 -10.78058885 -7.7317347 0 0 Z " fill="#223135" transform="translate(925.375,486.875)" data-index="5" style="visibility: visible; opacity: 1;"></path>
<path d="M0 0 C5.95424647 4.79461794 10.22673103 10.93274811 11.7734375 18.4921875 C11.85888347 20.2636437 11.89118554 22.03801272 11.88696289 23.81152344 C11.88684959 25.40272003 11.88684959 25.40272003 11.88673401 27.02606201 C11.88157272 28.16472717 11.87641144 29.30339233 11.87109375 30.4765625 C11.8696788 31.64729309 11.86826385 32.81802368 11.86680603 34.02423096 C11.8612084 37.76357579 11.8486563 41.50286076 11.8359375 45.2421875 C11.8309222 47.77734289 11.82635934 50.31249921 11.82226562 52.84765625 C11.81123973 59.06252307 11.79397669 65.27734513 11.7734375 71.4921875 C5.1734375 71.4921875 -1.4265625 71.4921875 -8.2265625 71.4921875 C-8.24114502 70.0695459 -8.25572754 68.6469043 -8.27075195 67.18115234 C-8.32882066 61.891837 -8.40605376 56.60294353 -8.48901367 51.31396484 C-8.52222256 49.02692524 -8.55026701 46.73980447 -8.57299805 44.45263672 C-8.6066176 41.16078172 -8.65893874 37.86966778 -8.71484375 34.578125 C-8.72123367 33.55915131 -8.7276236 32.54017761 -8.73420715 31.49032593 C-8.84523855 26.10235144 -9.14938406 22.12008105 -12.2265625 17.4921875 C-16.89739746 13.71559787 -21.33901016 13.99951677 -27.12109375 14.13671875 C-32.2084053 14.71903995 -34.46582909 16.50373405 -37.84797668 20.32330322 C-39.49043392 22.90732783 -39.6197326 24.40218746 -39.65893555 27.44433594 C-39.67872971 28.42505066 -39.69852386 29.40576538 -39.71891785 30.41619873 C-39.72850273 31.9929538 -39.72850273 31.9929538 -39.73828125 33.6015625 C-39.75623245 34.68350891 -39.77418365 35.76545532 -39.79267883 36.88018799 C-39.84683886 40.33414824 -39.88069653 43.78796985 -39.9140625 47.2421875 C-39.94723046 49.58465473 -39.98171963 51.92710366 -40.01757812 54.26953125 C-40.10256897 60.01031672 -40.16935352 65.75106066 -40.2265625 71.4921875 C-46.8265625 71.4921875 -53.4265625 71.4921875 -60.2265625 71.4921875 C-60.2265625 46.7421875 -60.2265625 21.9921875 -60.2265625 -3.5078125 C-53.9565625 -3.5078125 -47.6865625 -3.5078125 -41.2265625 -3.5078125 C-40.8965625 -0.8678125 -40.5665625 1.7721875 -40.2265625 4.4921875 C-39.75347656 4.02167969 -39.28039062 3.55117188 -38.79296875 3.06640625 C-27.56437854 -7.50554126 -12.94129739 -8.76375578 0 0 Z " fill="#223135" transform="translate(736.2265625,486.5078125)" data-index="6" style="visibility: visible; opacity: 1;"></path>
<path d="M0 0 C6.6 0 13.2 0 20 0 C20 6.93 20 13.86 20 21 C26.93 21 33.86 21 41 21 C41 26.61 41 32.22 41 38 C34.07 38 27.14 38 20 38 C20.0740234 43.19695328 20.15686898 48.3921921 20.26245117 53.58837891 C20.29568069 55.35554083 20.32371882 57.12280839 20.34643555 58.89013672 C20.38001831 61.43242351 20.43233451 63.97374408 20.48828125 66.515625 C20.49467117 67.30430969 20.5010611 68.09299438 20.50764465 68.90557861 C20.59455289 72.15666737 20.77409418 74.58535391 22.34448242 77.46777344 C26.68762058 81.48746597 33.52843008 80.05883409 39 80 C39 85.28 39 90.56 39 96 C29.83862327 98.61753621 20.31067133 100.04140747 11.375 95.875 C5.58218249 92.44934712 2.17175136 88.71671307 0.38824463 82.05905151 C-0.3575742 78.1036088 -0.24223094 74.14038729 -0.1953125 70.12890625 C-0.1924826 69.206577 -0.18965271 68.28424774 -0.18673706 67.33396912 C-0.17560974 64.41000987 -0.15051912 61.48636549 -0.125 58.5625 C-0.11496057 56.57096799 -0.1058364 54.57943114 -0.09765625 52.58789062 C-0.07569483 47.7251405 -0.04121673 42.8626235 0 38 C-4.29 38 -8.58 38 -13 38 C-13 32.39 -13 26.78 -13 21 C-8.71 21 -4.42 21 0 21 C0 14.07 0 7.14 0 0 Z " fill="#223337" transform="translate(768,462)" data-index="7" style="visibility: visible; opacity: 1;"></path>
<path d="M0 0 C0 6.27 0 12.54 0 19 C-2.475 19.0928125 -2.475 19.0928125 -5 19.1875 C-10.72957809 19.71842616 -14.6788553 21.17823287 -19 25 C-22.35355454 29.2994289 -24.09100359 32.7577424 -24.20532227 38.19604492 C-24.22526749 39.03668991 -24.24521271 39.8773349 -24.26576233 40.74345398 C-24.29083107 42.09827629 -24.29083107 42.09827629 -24.31640625 43.48046875 C-24.33718735 44.40845779 -24.35796844 45.33644684 -24.37937927 46.29255676 C-24.44477323 49.2574624 -24.50371262 52.22245672 -24.5625 55.1875 C-24.60569487 57.1972748 -24.64930947 59.20704063 -24.69335938 61.21679688 C-24.80123429 66.14444167 -24.90038332 71.07215361 -25 76 C-31.6 76 -38.2 76 -45 76 C-45 51.25 -45 26.5 -45 1 C-38.73 1 -32.46 1 -26 1 C-25.67 3.97 -25.34 6.94 -25 10 C-24.50371094 9.52949219 -24.00742187 9.05898438 -23.49609375 8.57421875 C-15.89170178 1.60472858 -10.26967785 -0.42204156 0 0 Z " fill="#253439" transform="translate(864,482)" data-index="8" style="visibility: visible; opacity: 1;"></path>
<path d="M0 0 C6.27 0 12.54 0 19 0 C19 24.75 19 49.5 19 75 C12.73 75 6.46 75 0 75 C0 50.25 0 25.5 0 0 Z " fill="#202F33" transform="translate(429,483)" data-index="9" style="visibility: visible; opacity: 1;"></path>
<path d="M0 0 C12.21 0 24.42 0 37 0 C37 11.88 37 23.76 37 36 C24.79 36 12.58 36 0 36 C0 24.12 0 12.24 0 0 Z " fill="#F27500" transform="translate(209,509)" data-index="10" style="visibility: visible;"></path>
<path d="M0 0 C12.21 0 24.42 0 37 0 C37 11.88 37 23.76 37 36 C24.79 36 12.58 36 0 36 C0 24.12 0 12.24 0 0 Z " fill="#F27500" transform="translate(209,461)" data-index="11" style="visibility: visible; opacity: 1;"></path>
<path d="M0 0 C11.88 0 23.76 0 36 0 C36 11.88 36 23.76 36 36 C24.12 36 12.24 36 0 36 C0 24.12 0 12.24 0 0 Z " fill="#F17000" transform="translate(161,509)" data-index="12" style="visibility: visible;"></path>
<path d="M0 0 C1.75884521 0.00374634 1.75884521 0.00374634 3.55322266 0.00756836 C5.7969165 0.02122437 5.7969165 0.02122437 8.0859375 0.03515625 C15.2015625 0.06609375 15.2015625 0.06609375 22.4609375 0.09765625 C22.4609375 11.97765625 22.4609375 23.85765625 22.4609375 36.09765625 C10.5809375 36.09765625 -1.2990625 36.09765625 -13.5390625 36.09765625 C-13.6421875 31.25078125 -13.7453125 26.40390625 -13.8515625 21.41015625 C-13.89708252 19.88946533 -13.94260254 18.36877441 -13.98950195 16.80200195 C-14.00198975 15.59632568 -14.01447754 14.39064941 -14.02734375 13.1484375 C-14.05352783 11.91778564 -14.07971191 10.68713379 -14.10668945 9.41918945 C-13.38421056 5.19152264 -11.80814143 3.77118264 -8.5390625 1.09765625 C-5.66887809 -0.33743596 -3.20362527 -0.01392881 0 0 Z " fill="#F17102" transform="translate(174.5390625,460.90234375)" data-index="13" style="visibility: visible; opacity: 1;"></path>
<path d="M0 0 C3.75212276 2.01502889 5.63644095 3.45466142 8 7 C8.6820176 10.76904461 8.83098707 14.45628171 6.984375 17.88671875 C4.84357352 20.5498242 3.25941392 21.91352869 0 23 C-6.1188126 23.50154202 -9.10653554 23.07788705 -14 19 C-16.68468038 14.97297943 -16.68187737 11.7315637 -16 7 C-12.19753269 0.61728702 -7.30343302 -1.16574027 0 0 Z " fill="#202E32" transform="translate(442,451)" data-index="14" style="visibility: visible;"></path>
<path d="M0 0 C1.60488281 0.03383789 1.60488281 0.03383789 3.2421875 0.06835938 C5.87124407 0.12704367 8.49738582 0.2090882 11.125 0.3125 C11.24394169 5.60227518 11.03677804 8.79422373 8.125 13.3125 C3.46618995 17.62189929 0.0020954 18.48908488 -6.25 18.625 C-7.37148438 18.66238281 -8.49296875 18.69976563 -9.6484375 18.73828125 C-13.57775669 18.21976334 -15.17258509 17.17854737 -17.875 14.3125 C-18.57421875 12.12890625 -18.57421875 12.12890625 -18.5625 9.875 C-18.58699219 9.13378906 -18.61148438 8.39257812 -18.63671875 7.62890625 C-17.70311715 4.78979986 -16.29878888 3.1025547 -13.93188477 1.28735352 C-9.57062561 -0.77965038 -4.71654252 -0.18877787 0 0 Z " fill="#F9F9F8" transform="translate(906.875,525.6875)" data-index="15" style="visibility: visible; opacity: 1;"></path>
<path d="M0 0 C4.98174311 4.49571939 6.41754372 6.44276235 7.5625 13.3125 C-3.6575 13.3125 -14.8775 13.3125 -26.4375 13.3125 C-25.30219345 6.50066068 -25.30219345 6.50066068 -22.6875 3.5625 C-22.19765625 2.99015625 -21.7078125 2.4178125 -21.203125 1.828125 C-15.39616915 -3.15660701 -6.62001866 -3.24982734 0 0 Z " fill="#FBFBFA" transform="translate(635.4375,498.6875)" data-index="16" style="visibility: visible; opacity: 1;"></path>
<path d="M0 0 C6.27 0 12.54 0 19 0 C19 3.3 19 6.6 19 10 C18.01 10.495 18.01 10.495 17 11 C17 8.03 17 5.06 17 2 C11.72 2 6.44 2 1 2 C1 25.76 1 49.52 1 74 C6.61 74 12.22 74 18 74 C17.96519531 69.82923828 17.96519531 69.82923828 17.9296875 65.57421875 C17.91409347 62.88354957 17.90194731 60.1928854 17.89013672 57.50219727 C17.88007433 55.63108062 17.86642309 53.75997972 17.84912109 51.88891602 C17.82488316 49.20064409 17.81351937 46.51257994 17.8046875 43.82421875 C17.79436493 42.98662521 17.78404236 42.14903168 17.77340698 41.28605652 C17.77225659 35.34161512 17.77225659 35.34161512 20 32 C20 46.19 20 60.38 20 75 C13.4 75 6.8 75 0 75 C0 50.25 0 25.5 0 0 Z " fill="#070B0E" transform="translate(819,483)" data-index="17" style="visibility: visible;"></path>
<path d="M0 0 C12.21 0 24.42 0 37 0 C37 11.88 37 23.76 37 36 C24.79 36 12.58 36 0 36 C0 24.12 0 12.24 0 0 Z M1 1 C1 11.89 1 22.78 1 34 C12.22 34 23.44 34 35 34 C35 23.11 35 12.22 35 1 C23.78 1 12.56 1 1 1 Z " fill="#EE5803" transform="translate(209,509)" data-index="18" style="visibility: visible;"></path>
<path d="M0 0 C12.21 0 24.42 0 37 0 C37 11.88 37 23.76 37 36 C24.79 36 12.58 36 0 36 C0 24.12 0 12.24 0 0 Z M1 2 C1 12.89 1 23.78 1 35 C12.22 35 23.44 35 35 35 C35 24.11 35 13.22 35 2 C23.78 2 12.56 2 1 2 Z " fill="#EF5805" transform="translate(209,461)" data-index="19" style="visibility: visible;"></path>
<path d="M0 0 C4.95 0 9.9 0 15 0 C15 5.28 15 10.56 15 16 C9.24389668 17.64460095 5.82916562 18.22706488 0.0625 18.125 C-0.62134766 18.11597656 -1.30519531 18.10695313 -2.00976562 18.09765625 C-3.67333287 18.07438958 -5.33671631 18.03853167 -7 18 C-7.33 17.01 -7.66 16.02 -8 15 C2.395 14.505 2.395 14.505 13 14 C13 10.7 13 7.4 13 4 C11.35 4 9.7 4 8 4 C8 3.67 8 3.34 8 3 C6.865625 2.87625 5.73125 2.7525 4.5625 2.625 C3.386875 2.41875 2.21125 2.2125 1 2 C0.67 1.34 0.34 0.68 0 0 Z " fill="#192326" transform="translate(792,542)" data-index="20" style="visibility: visible;"></path>
<path d="M0 0 C6.6 0 13.2 0 20 0 C20 6.93 20 13.86 20 21 C19.67 21 19.34 21 19 21 C19 14.73 19 8.46 19 2 C13.39 2 7.78 2 2 2 C2 8.27 2 14.54 2 21 C1.34 21 0.68 21 0 21 C0 14.07 0 7.14 0 0 Z " fill="#131A1E" transform="translate(768,462)" data-index="21" style="visibility: visible; opacity: 1;"></path>
<path d="M0 0 C6.93 0 13.86 0 21 0 C21 5.61 21 11.22 21 17 C14.4 17 7.8 17 1 17 C0.67 16.34 0.34 15.68 0 15 C6.27 15 12.54 15 19 15 C19 10.38 19 5.76 19 1 C12.73 1 6.46 1 0 1 C0 0.67 0 0.34 0 0 Z " fill="#061116" transform="translate(788,483)" data-index="22" style="visibility: visible;"></path>
<path d="M0 0 C4.29 0 8.58 0 13 0 C13 0.33 13 0.66 13 1 C9.37 1 5.74 1 2 1 C2 5.62 2 10.24 2 15 C5.63 15 9.26 15 13 15 C12.67 15.66 12.34 16.32 12 17 C8.04 17 4.08 17 0 17 C0 11.39 0 5.78 0 0 Z " fill="#040E13" transform="translate(755,483)" data-index="23" style="visibility: visible;"></path>
<path d="M0 0 C5.94 0 11.88 0 18 0 C18 3.3 18 6.6 18 10 C17.01 10.495 17.01 10.495 16 11 C16 8.03 16 5.06 16 2 C10.72 2 5.44 2 0 2 C0 1.34 0 0.68 0 0 Z " fill="#0A161B" transform="translate(820,483)" data-index="24" style="visibility: visible;"></path>
<path d="M0 0 C-0.70125 0.556875 -1.4025 1.11375 -2.125 1.6875 C-3.6312808 2.89907369 -5.13425574 4.11587354 -6.59765625 5.37890625 C-10.79647436 9 -10.79647436 9 -13 9 C-12.75232426 5.65637745 -11.72075548 4.71426143 -9.3125 2.25 C-6.22605824 -0.19374445 -3.95017866 -0.47025936 0 0 Z " fill="#212C2F" transform="translate(540,485)" data-index="25" style="visibility: visible; opacity: 1;"></path>
<path d="M0 0 C0.886875 -0.01417969 1.77375 -0.02835937 2.6875 -0.04296875 C5 0.1875 5 0.1875 7 2.1875 C4.52224905 3.42637548 2.76346293 3.35491669 0 3.375 C-1.3303125 3.39626953 -1.3303125 3.39626953 -2.6875 3.41796875 C-5 3.1875 -5 3.1875 -7 1.1875 C-4.52224905 -0.05137548 -2.76346293 0.02008331 0 0 Z " fill="#30393B" transform="translate(550,480.8125)" data-index="26" style="visibility: visible;"></path>
<path d="M0 0 C0.99 0 1.98 0 3 0 C1.56188795 3.54529226 -0.1314464 5.10778597 -3.3125 7.1875 C-4.07175781 7.69667969 -4.83101562 8.20585938 -5.61328125 8.73046875 C-8.10281797 10.05469041 -10.22328716 10.59209351 -13 11 C-11.00857507 9.43530899 -9.17245943 8.08115738 -6.875 7 C-4.66622819 6.01189614 -4.66622819 6.01189614 -3 3 C-2.01 2.34 -1.02 1.68 0 1 C0 0.67 0 0.34 0 0 Z " fill="#161C1E" transform="translate(657,546)" data-index="27" style="visibility: visible; opacity: 1;"></path>
<path d="M0 0 C0.9075 0.144375 1.815 0.28875 2.75 0.4375 C8.14026126 1.21547585 13.57239588 1.58112086 19 2 C19 2.33 19 2.66 19 3 C12.4 3 5.8 3 -1 3 C-0.67 2.01 -0.34 1.02 0 0 Z " fill="#304044" transform="translate(365,452)" data-index="28" style="visibility: visible;"></path>
<path d="M0 0 C0.7734375 0.433125 0.7734375 0.433125 1.5625 0.875 C4.62356725 2.28780027 7.74944918 3.1248517 11 4 C11 4.66 11 5.32 11 6 C11.66 6.33 12.32 6.66 13 7 C6.86592242 6.63195535 4.26093821 5.15701288 0 1 C0 0.67 0 0.34 0 0 Z " fill="#151C1E" transform="translate(874,551)" data-index="29" style="visibility: visible;"></path>
<path d="M0 0 C3.63 0 7.26 0 11 0 C10.67 0.99 10.34 1.98 10 3 C6.7 3 3.4 3 0 3 C0 2.01 0 1.02 0 0 Z " fill="#39464A" transform="translate(889,557)" data-index="30" style="visibility: visible;"></path>
<path d="M0 0 C0.33 0.99 0.66 1.98 1 3 C-1.30368736 4.06652192 -3.64018187 5.06421005 -6 6 C-6.66 5.67 -7.32 5.34 -8 5 C-4.04 2.525 -4.04 2.525 0 0 Z " fill="#F05A07" transform="translate(235,561)" data-index="31" style="visibility: visible;"></path>
</svg>