<?xml version="1.0" encoding="UTF-8"?>
<svg version="1.1" xmlns="http://www.w3.org/2000/svg" width="1024" height="300">
<path d="M0 0 C3.80221156 2.85524566 7.41237995 5.8819007 11 9 C12.08145156 9.85654792 13.16442668 10.71118198 14.25 11.5625 C17.24928596 14.22095801 19.80117718 17.0777128 22.38671875 20.1328125 C23.93781708 22.02678997 23.93781708 22.02678997 25.76953125 23.4921875 C27 25 27 25 26.91796875 26.96484375 C23.27114311 35.04993379 11.54701814 41.36346999 4.58007812 46.76757812 C2.37022426 48.49120951 0.18358888 50.24327812 -2 52 C-5.65405603 50.50738336 -7.50598878 48.4558204 -10 45.4375 C-21.09092499 32.89914598 -36.01546839 24.0274244 -52.93701172 22.8671875 C-71.06427319 21.88044612 -88.92548892 25.78131122 -102.93969727 38.06103516 C-105.37083716 40.30311598 -107.68801087 42.63482094 -110 45 C-110.88945312 45.84111328 -110.88945312 45.84111328 -111.796875 46.69921875 C-120.04395857 55.14582853 -125.14954539 68.583636 -127 80 C-127.15210938 80.9384375 -127.30421875 81.876875 -127.4609375 82.84375 C-129.82579155 102.39321017 -123.60330016 120.4401647 -112 136 C-100.47137779 149.82614122 -83.67575307 157.85101427 -65.9375 159.75 C-46.41656003 160.96724106 -28.90734464 154.68359947 -14.1875 142 C-10.46404359 138.57120561 -7.19010661 134.92628506 -4 131 C-0.06010182 132.33859938 2.33752911 133.98985949 5.3125 136.875 C12.08571749 143.17542841 19.54836101 148.53608108 27 154 C26.15628624 159.98830986 23.07328548 162.75430032 19 167 C17.73349609 168.34384766 17.73349609 168.34384766 16.44140625 169.71484375 C10.75021533 175.59977734 4.97204801 180.66138836 -2 185 C-3.02480469 185.65742188 -4.04960937 186.31484375 -5.10546875 186.9921875 C-28.91250925 201.51201657 -57.89683272 205.81254294 -85.00927734 199.49609375 C-113.56717925 192.37938334 -138.54744973 173.84973568 -153.8671875 148.6953125 C-168.93536964 123.04820861 -173.75021853 93.51659471 -167.1875 64.39453125 C-159.40947522 35.71306486 -142.86294944 10.50902485 -117.01806641 -4.85058594 C-79.28912884 -26.33955739 -35.9599278 -23.29858795 0 0 Z " fill="#F27302" transform="translate(259,60)"/>
<path d="M0 0 C2.86194195 2.15003986 5.46331106 4.47713498 8 7 C10.73808801 5.73581894 12.36010507 4.66561673 14.625 2.5625 C20.64266865 -2.5351742 28.59159533 -3.59023678 36.26171875 -3.3515625 C43.54602376 -2.41634502 49.92357774 0.68746508 55 6 C59.07213489 12.17459583 61.13023935 17.17373068 61.11352539 24.59472656 C61.11341209 26.27601654 61.11341209 26.27601654 61.11329651 27.99127197 C61.10813522 29.19555847 61.10297394 30.39984497 61.09765625 31.640625 C61.0962413 32.87794373 61.09482635 34.11526245 61.09336853 35.39007568 C61.0887211 38.67144941 61.07974347 41.95277373 61.06866455 45.23413086 C61.0584152 48.58577011 61.05394859 51.93741148 61.04882812 55.2890625 C61.03780025 61.85939431 61.02106296 68.42969311 61 75 C57.68751813 75.02888146 54.37506833 75.04675799 51.0625 75.0625 C50.11697266 75.07087891 49.17144531 75.07925781 48.19726562 75.08789062 C46.84858398 75.09272461 46.84858398 75.09272461 45.47265625 75.09765625 C44.22367554 75.10551147 44.22367554 75.10551147 42.94946289 75.11352539 C41 75 41 75 40 74 C39.89821464 72.46659551 39.86431509 70.92861232 39.8581543 69.3918457 C39.84760262 67.91945183 39.84760262 67.91945183 39.83683777 66.41731262 C39.83267349 65.34760727 39.82850922 64.27790192 39.82421875 63.17578125 C39.80101326 60.92772509 39.77689564 58.67967819 39.75195312 56.43164062 C39.71686864 52.87436805 39.68751865 49.31743408 39.67407227 45.76000977 C39.65858187 42.33567813 39.61835258 38.91234796 39.57421875 35.48828125 C39.57612717 34.42869705 39.57803558 33.36911285 39.58000183 32.27742004 C39.48059314 26.26527343 39.14044878 22.51159987 35 18 C29.78540733 16.26180244 24.18297546 16.11752056 19.0625 18.1875 C15.99940986 20.87930648 14.2284332 23.17358465 13.70794678 27.33508301 C13.57277702 30.28362654 13.53264409 33.22023732 13.5234375 36.171875 C13.50785797 37.25003479 13.49227844 38.32819458 13.47622681 39.43902588 C13.42875637 42.87601024 13.40094845 46.31279145 13.375 49.75 C13.33855391 53.20134893 13.29800878 56.65258152 13.25234985 60.1038208 C13.22504271 62.2505208 13.20372674 64.39730655 13.18881226 66.54412842 C13.17341904 67.9913327 13.17341904 67.9913327 13.15771484 69.46777344 C13.14797134 70.74754059 13.14797134 70.74754059 13.13803101 72.05316162 C13 74 13 74 12 75 C10.5112814 75.08669432 9.018555 75.10703494 7.52734375 75.09765625 C6.62822266 75.09443359 5.72910156 75.09121094 4.80273438 75.08789062 C3.38444336 75.07532227 3.38444336 75.07532227 1.9375 75.0625 C0.98810547 75.05798828 0.03871094 75.05347656 -0.93945312 75.04882812 C-3.29303065 75.0370011 -5.64648477 75.02052025 -8 75 C-8.00586624 74.40166855 -8.01173248 73.8033371 -8.01777649 73.18687439 C-8.08187467 66.94076396 -8.1663365 60.69516095 -8.26245117 54.44946289 C-8.29563748 52.12075505 -8.32368888 49.79196798 -8.34643555 47.46313477 C-8.38009669 44.10919543 -8.43241999 40.75597794 -8.48828125 37.40234375 C-8.49467117 36.36665756 -8.5010611 35.33097137 -8.50764465 34.26390076 C-8.62537496 28.43222221 -9.16614905 24.140555 -12 19 C-16.044474 15.94772544 -21.16701034 16.50571697 -26 17 C-29.42124113 18.31026256 -30.59451333 19.384424 -32.59692383 22.42431641 C-34.53080654 27.35273928 -34.47879067 31.83503694 -34.51171875 37.0859375 C-34.52966995 38.14285797 -34.54762115 39.19977844 -34.56611633 40.28872681 C-34.62011938 43.6507778 -34.65408362 47.0126876 -34.6875 50.375 C-34.72068183 52.66017585 -34.75517229 54.9453331 -34.79101562 57.23046875 C-34.87584009 62.82018588 -34.94423229 68.40992151 -35 74 C-41.64830806 76.21610269 -48.99206799 75 -56 75 C-56 49.59 -56 24.18 -56 -2 C-49.73 -2 -43.46 -2 -37 -2 C-36.67 0.97 -36.34 3.94 -36 7 C-35.52691406 6.52949219 -35.05382812 6.05898437 -34.56640625 5.57421875 C-24.94556154 -3.48400346 -12.14576496 -6.30102296 0 0 Z " fill="#233236" transform="translate(517,133)"/>
<path d="M0 0 C4.63001682 3.50644597 8.82006736 7.41811817 12.6875 11.75 C13.27660156 12.40613281 13.86570312 13.06226562 14.47265625 13.73828125 C15.6875 15.75 15.6875 15.75 15.46582031 17.72387695 C14.05903887 21.38600969 10.63335323 22.71083178 7.375 24.625 C6.69759766 25.05296875 6.02019531 25.4809375 5.32226562 25.921875 C3.32421875 27.1171875 3.32421875 27.1171875 -0.3125 28.75 C-3.4254175 27.96406538 -4.13753307 26.97323366 -6.125 24.4375 C-11.77264946 17.49895923 -18.54617309 14.74088816 -27.3125 13.75 C-36.43987758 13.88159968 -44.63927058 15.16053497 -51.3125 21.75 C-58.88275179 31.05714939 -61.09709714 40.64618236 -60.06640625 52.60546875 C-58.75480166 60.09206131 -55.73897489 67.32352511 -50.3125 72.75 C-40.960168 78.90143825 -32.47348289 80.73443068 -21.3125 79.75 C-14.53369245 78.1355614 -9.06743252 74.83937732 -4.3125 69.75 C-3.9825 69.09 -3.6525 68.43 -3.3125 67.75 C1.78397717 68.23796058 5.35454554 70.05638503 9.5625 72.8125 C10.15546875 73.18955078 10.7484375 73.56660156 11.359375 73.95507812 C12.80777322 74.87784796 14.24846031 75.81270263 15.6875 76.75 C12.8839148 85.33113922 5.09642777 91.8276283 -2.7355957 95.91650391 C-15.81516975 102.11911881 -30.76522463 103.70607494 -44.796875 99.7734375 C-60.84605041 93.9339488 -71.78266904 85.22909547 -79.3125 69.75 C-85.11762855 54.80126237 -84.77876798 38.48826841 -79.09375 23.546875 C-72.42772763 9.10382654 -61.16434073 -0.2478932 -46.3125 -5.75 C-31.08495318 -9.88952729 -13.2989121 -8.77888911 0 0 Z " fill="#253438" transform="translate(403.3125,108.25)"/>
<path d="M0 0 C8.81796334 6.56279456 15.70419488 14.0630395 18 25 C19.55826087 37.88347826 19.55826087 37.88347826 18 41 C-0.15 41 -18.3 41 -37 41 C-33.84464034 50.07168305 -33.84464034 50.07168305 -27 55.8125 C-19.98054009 58.45423222 -11.77083218 57.86472555 -4.9140625 55.046875 C-2.16903565 53.54551337 0.39669836 51.73553443 3 50 C7.29 52.97 11.58 55.94 16 59 C12.19912441 66.60175118 6.13229713 70.40377653 -1.703125 73.2734375 C-13.43536385 76.98465591 -27.97283549 76.53075852 -39 71 C-48.52402205 65.43058918 -54.76855111 57.49333129 -58 47 C-60.74023311 35.81071478 -58.62506213 23.76876915 -53.078125 13.73046875 C-47.82549364 5.29961479 -39.61060229 -1.11435611 -29.89453125 -3.5625 C-19.77361846 -5.0922466 -9.08771255 -5.24506867 0 0 Z M-33.61328125 17.94140625 C-36.35634792 22.12717303 -36.35634792 22.12717303 -37 27 C-25.78 27 -14.56 27 -3 27 C-5.65421368 18.06483415 -5.65421368 18.06483415 -12 13 C-19.34224956 9.81835853 -28.53377553 11.82878072 -33.61328125 17.94140625 Z " fill="#253437" transform="translate(646,134)"/>
<path d="M0 0 C7.27575741 5.85223966 10.89240346 11.15989373 12.875 20.3125 C13.24876533 24.51058099 13.22684494 28.67087678 13.16796875 32.8828125 C13.16372391 34.04505341 13.15947906 35.20729431 13.15510559 36.40475464 C13.13843926 40.08258153 13.10080894 43.75984136 13.0625 47.4375 C13.04743762 49.94530453 13.03375195 52.45311774 13.02148438 54.9609375 C12.98857513 61.07834036 12.93687619 67.19532435 12.875 73.3125 C6.605 73.3125 0.335 73.3125 -6.125 73.3125 C-7.55588528 70.45072943 -6.72491697 68.37874227 -6.125 65.3125 C-6.67027344 65.71082031 -7.21554687 66.10914063 -7.77734375 66.51953125 C-16.46142299 72.62065359 -24.38879637 75.64160361 -35.125 74.3125 C-41.74800965 72.6721807 -47.54644915 70.44941071 -52.125 65.3125 C-55.75922828 58.71620479 -57.29361645 52.72778517 -55.6875 45.28515625 C-53.71811855 38.87235789 -49.66088638 34.31051799 -43.84375 31.0234375 C-38.02885689 28.32920369 -32.81315352 27.18047779 -26.38671875 27.21484375 C-25.32001953 27.21806641 -24.25332031 27.22128906 -23.15429688 27.22460938 C-21.50010742 27.23717773 -21.50010742 27.23717773 -19.8125 27.25 C-18.69037109 27.25451172 -17.56824219 27.25902344 -16.41210938 27.26367188 C-13.6496849 27.27542687 -10.88737002 27.29185923 -8.125 27.3125 C-8.87800919 21.37209418 -9.57405768 17.55423719 -14.1875 13.5 C-19.47430797 11.36277976 -24.49779223 11.33152543 -29.85546875 13.33203125 C-33.92022463 15.31937866 -37.55361716 17.53203984 -41.125 20.3125 C-44.57695767 18.8866914 -46.2264256 17.21503666 -48.375 14.1875 C-49.15617188 13.10082031 -49.15617188 13.10082031 -49.953125 11.9921875 C-50.33984375 11.43789062 -50.7265625 10.88359375 -51.125 10.3125 C-48.49780164 3.90606978 -42.16885166 0.64588585 -36.06640625 -2.02734375 C-23.63465922 -6.30313435 -11.60340227 -6.26583723 0 0 Z M-34.125 44.3125 C-35.67086876 47.40423752 -35.41859521 49.90679552 -35.125 53.3125 C-33.25791495 55.67747439 -31.80438569 56.97280715 -29.125 58.3125 C-22.03320378 59.0407821 -15.95879264 58.68426107 -10.125 54.3125 C-6.72683523 50.36624414 -6.55099173 46.33920238 -6.125 41.3125 C-10.43956497 40.11145761 -14.54527102 40.05397491 -19 40 C-19.79019531 39.97099609 -20.58039062 39.94199219 -21.39453125 39.91210938 C-26.79276562 39.85372581 -29.85323776 40.70359742 -34.125 44.3125 Z " fill="#253438" transform="translate(924.125,134.6875)"/>
<path d="M0 0 C5.83143781 4.36617806 9.43340274 10.96832933 11.2265625 17.90234375 C11.50232917 22.10911127 11.45898925 26.30534415 11.421875 30.51953125 C11.4190451 31.73182404 11.41621521 32.94411682 11.41329956 34.19314575 C11.40212917 38.05464664 11.37702987 41.91591328 11.3515625 45.77734375 C11.34152866 48.39973623 11.33240352 51.02213235 11.32421875 53.64453125 C11.30220004 60.06389197 11.26769136 66.48307817 11.2265625 72.90234375 C4.6265625 72.90234375 -1.9734375 72.90234375 -8.7734375 72.90234375 C-9.92821787 70.592783 -9.87789724 69.34435397 -9.83935547 66.77905273 C-9.82471756 65.50148354 -9.82471756 65.50148354 -9.80978394 64.19810486 C-9.79521149 63.27421463 -9.78063904 62.3503244 -9.765625 61.3984375 C-9.74809242 59.44076054 -9.73118573 57.48307789 -9.71484375 55.52539062 C-9.68401374 52.44018783 -9.64867062 49.35527046 -9.60205078 46.27026367 C-9.5593929 43.29212025 -9.53617075 40.31430508 -9.515625 37.3359375 C-9.49700409 36.42621689 -9.47838318 35.51649628 -9.459198 34.57920837 C-9.4357011 28.63555409 -10.15304968 23.305958 -12.7734375 17.90234375 C-17.08352565 14.10830326 -21.40202662 14.45935128 -26.89453125 14.62109375 C-31.92015117 15.1120634 -34.58781233 16.55300501 -37.89160156 20.31298828 C-40.81625623 24.87689935 -40.37661189 29.9541465 -40.3828125 35.20703125 C-40.39934875 36.28614777 -40.41588501 37.36526428 -40.43292236 38.4770813 C-40.48135609 41.91056029 -40.50276386 45.34359647 -40.5234375 48.77734375 C-40.55160092 51.1106993 -40.58152886 53.44403427 -40.61328125 55.77734375 C-40.68711384 61.48559682 -40.73878354 67.1937256 -40.7734375 72.90234375 C-44.08591937 72.93122521 -47.39836917 72.94910174 -50.7109375 72.96484375 C-51.65646484 72.97322266 -52.60199219 72.98160156 -53.57617188 72.99023438 C-54.92485352 72.99506836 -54.92485352 72.99506836 -56.30078125 73 C-57.13343506 73.00523682 -57.96608887 73.01047363 -58.82397461 73.01586914 C-60.7734375 72.90234375 -60.7734375 72.90234375 -61.7734375 71.90234375 C-61.87367305 69.5652005 -61.90962953 67.2576005 -61.90283203 64.91992188 C-61.90458435 64.18986435 -61.90633667 63.45980682 -61.90814209 62.70762634 C-61.91256049 60.28292497 -61.90962267 57.85829593 -61.90625 55.43359375 C-61.90692304 53.75589992 -61.90789307 52.07820619 -61.90914917 50.4005127 C-61.91062613 46.87979201 -61.90847166 43.35909665 -61.90380859 39.83837891 C-61.8981113 35.31523879 -61.90139032 30.79215801 -61.90738106 26.26902008 C-61.91098673 22.8033198 -61.90984806 19.33763368 -61.90725327 15.87193298 C-61.90658401 14.2036895 -61.90741236 12.53544476 -61.90973282 10.86720276 C-61.91225945 8.53968881 -61.90841863 6.21227227 -61.90283203 3.88476562 C-61.90485626 3.18862656 -61.90688049 2.49248749 -61.90896606 1.7752533 C-61.88770024 -2.98339351 -61.88770024 -2.98339351 -60.7734375 -4.09765625 C-59.35773627 -4.18417236 -57.9378425 -4.20470529 -56.51953125 -4.1953125 C-55.23852539 -4.19047852 -55.23852539 -4.19047852 -53.93164062 -4.18554688 C-53.03380859 -4.17716797 -52.13597656 -4.16878906 -51.2109375 -4.16015625 C-50.30923828 -4.15564453 -49.40753906 -4.15113281 -48.47851562 -4.14648438 C-46.24342436 -4.1346585 -44.00846313 -4.11817845 -41.7734375 -4.09765625 C-41.07268906 -0.94428825 -40.7734375 1.62959349 -40.7734375 4.90234375 C-40.28875 4.43183594 -39.8040625 3.96132812 -39.3046875 3.4765625 C-27.83843711 -7.17382007 -13.52773191 -8.37289134 0 0 Z " fill="#243438" transform="translate(736.7734375,135.09765625)"/>
<path d="M0 0 C6.93 0 13.86 0 21 0 C21 6.6 21 13.2 21 20 C27.6 20.33 34.2 20.66 41 21 C41 26.61 41 32.22 41 38 C34.07 38 27.14 38 20 38 C20.096999 43.05415853 20.199767 48.10750904 20.31738281 53.16113281 C20.35563327 54.87981011 20.39049303 56.59856638 20.421875 58.31738281 C20.46761128 60.7900004 20.52559084 63.26207613 20.5859375 65.734375 C20.59748871 66.50118591 20.60903992 67.26799683 20.62094116 68.05804443 C20.74438719 73.34838795 20.74438719 73.34838795 23 78 C28.39236296 80.76531434 34.09529711 80.14401714 40 80 C40 85.28 40 90.56 40 96 C31.39420027 98.45879992 21.24959887 99.67818691 12.4375 97 C6.469814 93.52789178 2.04642163 88.65683181 0 82 C-0.27202183 78.62717863 -0.23258313 75.26854684 -0.1953125 71.88671875 C-0.1924826 70.91716751 -0.18965271 69.94761627 -0.18673706 68.94868469 C-0.17556991 65.86149595 -0.15047152 62.77460061 -0.125 59.6875 C-0.11496573 57.59049899 -0.10584066 55.49349342 -0.09765625 53.39648438 C-0.07564188 48.2642104 -0.04113571 43.1321549 0 38 C-4.29 38 -8.58 38 -13 38 C-13 32.39 -13 26.78 -13 21 C-8.71 21 -4.42 21 0 21 C0 14.07 0 7.14 0 0 Z " fill="#223237" transform="translate(768,111)"/>
<path d="M0 0 C0 6.27 0 12.54 0 19 C-2.02125 19.2475 -4.0425 19.495 -6.125 19.75 C-11.33997565 20.57103308 -15.06576835 21.26752382 -19 25 C-22.12393503 29.44247904 -24.09067921 33.74231086 -24.20532227 39.19604492 C-24.22526749 40.03668991 -24.24521271 40.8773349 -24.26576233 41.74345398 C-24.29083107 43.09827629 -24.29083107 43.09827629 -24.31640625 44.48046875 C-24.33718735 45.40845779 -24.35796844 46.33644684 -24.37937927 47.29255676 C-24.44477323 50.2574624 -24.50371262 53.22245672 -24.5625 56.1875 C-24.60569487 58.1972748 -24.64930947 60.20704063 -24.69335938 62.21679688 C-24.80044427 67.14444032 -24.90174045 72.07217299 -25 77 C-28.31248187 77.02888146 -31.62493167 77.04675799 -34.9375 77.0625 C-35.88302734 77.07087891 -36.82855469 77.07925781 -37.80273438 77.08789062 C-39.15141602 77.09272461 -39.15141602 77.09272461 -40.52734375 77.09765625 C-41.35999756 77.10289307 -42.19265137 77.10812988 -43.05053711 77.11352539 C-45 77 -45 77 -46 76 C-46.09492722 73.65746218 -46.12559791 71.34453896 -46.11352539 69.00170898 C-46.11367142 68.27004517 -46.11381744 67.53838135 -46.1139679 66.7845459 C-46.11326867 64.35503216 -46.10547585 61.92559417 -46.09765625 59.49609375 C-46.0957921 57.81600486 -46.09436819 56.13591543 -46.09336853 54.45582581 C-46.08954307 50.02526357 -46.07971256 45.5947339 -46.06866455 41.16418457 C-46.05845103 36.64657024 -46.05387104 32.12895066 -46.04882812 27.61132812 C-46.03809031 18.74086877 -46.02049329 9.87044219 -46 1 C-39.4 1 -32.8 1 -26 1 C-25.67 3.97 -25.34 6.94 -25 10 C-23.4840625 8.3603125 -23.4840625 8.3603125 -21.9375 6.6875 C-15.16154197 0.00621603 -9.16029782 -0.33927029 0 0 Z " fill="#243438" transform="translate(864,131)"/>
<path d="M0 0 C6.27 0 12.54 0 19 0 C19.85876165 4.29380825 20.1212288 7.74818402 20.11352539 12.08520508 C20.11367142 12.77843872 20.11381744 13.47167236 20.1139679 14.18591309 C20.11327451 16.46381829 20.10550915 18.74164043 20.09765625 21.01953125 C20.09579003 22.60422216 20.09436709 24.18891365 20.09336853 25.77360535 C20.08955943 29.9344951 20.07974292 34.09534968 20.06866455 38.25622559 C20.05841582 42.50609868 20.0538635 46.75597748 20.04882812 51.00585938 C20.03811916 59.33725569 20.02106211 67.66862346 20 76 C13.52430386 77.61892404 6.6749948 77 0 77 C0 51.59 0 26.18 0 0 Z " fill="#203135" transform="translate(429,131)"/>
<path d="M0 0 C1.56047444 0.00025108 3.12095443 0.00581199 4.68139648 0.01586914 C5.40774292 0.01687622 6.13408936 0.0178833 6.88244629 0.0189209 C9.60581024 0.02416823 12.32915176 0.03812939 15.05249023 0.05102539 C21.13686523 0.07165039 27.22124023 0.09227539 33.48999023 0.11352539 C33.48999023 12.32352539 33.48999023 24.53352539 33.48999023 37.11352539 C20.94999023 37.11352539 8.40999023 37.11352539 -4.51000977 37.11352539 C-4.53063477 31.19415039 -4.55125977 25.27477539 -4.57250977 19.17602539 C-4.58161377 17.30567627 -4.59071777 15.43532715 -4.60009766 13.50830078 C-4.60301686 12.0342618 -4.60556541 10.56022202 -4.60766602 9.08618164 C-4.61278198 8.31399292 -4.61789795 7.5418042 -4.62316895 6.74621582 C-4.6234795 4.86827352 -4.57234545 2.99043286 -4.51000977 1.11352539 C-3.51000977 0.11352539 -3.51000977 0.11352539 0 0 Z " fill="#F27401" transform="translate(212.510009765625,156.886474609375)"/>
<path d="M0 0 C12.54 0 25.08 0 38 0 C38 11.88 38 23.76 38 36 C25.46 36 12.92 36 0 36 C0 24.12 0 12.24 0 0 Z " fill="#F27706" transform="translate(208,110)"/>
<path d="M0 0 C0 12.21 0 24.42 0 37 C-12.21 37 -24.42 37 -37 37 C-37 25.12 -37 13.24 -37 1 C-31.080625 0.835 -25.16125 0.67 -19.0625 0.5 C-17.19215088 0.44779297 -15.32180176 0.39558594 -13.39477539 0.34179688 C-11.92073598 0.30077025 -10.44669629 0.25975391 -8.97265625 0.21875 C-7.81437317 0.1863623 -7.81437317 0.1863623 -6.63269043 0.15332031 C-1.1140718 0 -1.1140718 0 0 0 Z " fill="#F27304" transform="translate(197,157)"/>
<path d="M0 0 C1.20817383 0.00749268 2.41634766 0.01498535 3.66113281 0.02270508 C5.19092773 0.05001709 6.72072266 0.0773291 8.296875 0.10546875 C13.164375 0.16734375 18.031875 0.22921875 23.046875 0.29296875 C23.046875 12.50296875 23.046875 24.71296875 23.046875 37.29296875 C14.1678125 37.32390625 14.1678125 37.32390625 5.109375 37.35546875 C3.23902588 37.36457275 1.36867676 37.37367676 -0.55834961 37.38305664 C-2.03238859 37.38597584 -3.50642837 37.38852439 -4.98046875 37.390625 C-5.75265747 37.39574097 -6.52484619 37.40085693 -7.32043457 37.40612793 C-9.19837687 37.40643849 -11.07621753 37.35530444 -12.953125 37.29296875 C-15.63929351 34.60680024 -14.18824696 26.71897151 -14.203125 23.10546875 C-14.22375 21.87248047 -14.244375 20.63949219 -14.265625 19.36914062 C-14.27078125 18.17482422 -14.2759375 16.98050781 -14.28125 15.75 C-14.2905957 14.6566333 -14.29994141 13.5632666 -14.30957031 12.43676758 C-13.79819023 7.92646528 -12.31840235 4.73905987 -9.20019531 1.4362793 C-6.04607127 -0.16854066 -3.52713989 -0.04483652 0 0 Z " fill="#F27306" transform="translate(173.953125,109.70703125)"/>
<path d="M0 0 C3.59242588 2.59877617 5.22773433 4.69157045 6 9 C6 13.29107948 5.70361469 14.75566237 3 18 C-0.48395338 21.38979247 -3.09713587 22.90194272 -8 23 C-12.53859235 21.51321975 -16.21535671 19.9627616 -19 16 C-20.19683135 12.07109157 -20.44132813 9.07880209 -18.875 5.25 C-13.2442468 -1.50690384 -8.30851695 -3.29703054 0 0 Z " fill="#253438" transform="translate(445,101)"/>
<path d="M0 0 C6.27 0 12.54 0 19 0 C19 0.33 19 0.66 19 1 C11.08 1.495 11.08 1.495 3 2 C3 25.43 3 48.86 3 73 C7.95 73 12.9 73 18 73 C18 58.15 18 43.3 18 28 C18.66 28 19.32 28 20 28 C20.33 27.34 20.66 26.68 21 26 C21 42.5 21 59 21 76 C14.4 76 7.8 76 1 76 C-0.66165207 74.33834793 -0.11959725 72.3348397 -0.12442017 70.11598206 C-0.12082489 69.41827194 -0.11722961 68.72056183 -0.11352539 68.00170898 C-0.11367142 67.27004517 -0.11381744 66.53838135 -0.1139679 65.7845459 C-0.11326867 63.35503216 -0.10547585 60.92559417 -0.09765625 58.49609375 C-0.0957921 56.81600486 -0.09436819 55.13591543 -0.09336853 53.45582581 C-0.08954307 49.02526357 -0.07971256 44.5947339 -0.06866455 40.16418457 C-0.05845103 35.64657024 -0.05387104 31.12895066 -0.04882812 26.61132812 C-0.03809031 17.74086877 -0.02049329 8.87044219 0 0 Z " fill="#414B4D" transform="translate(675,132)"/>
<path d="M0 0 C6.27 0 12.54 0 19 0 C19 3.3 19 6.6 19 10 C18.67 10 18.34 10 18 10 C18 7.36 18 4.72 18 2 C12.39 2 6.78 2 1 2 C1 26.09 1 50.18 1 75 C1.99 74.505 1.99 74.505 3 74 C7.95 74 12.9 74 18 74 C18 58.82 18 43.64 18 28 C18.99 28.66 19.98 29.32 21 30 C21.36076355 31.98684692 21.36076355 31.98684692 21.34057617 34.44970703 C21.34034958 35.37051056 21.34012299 36.29131409 21.33988953 37.24002075 C21.32440567 38.23589203 21.30892181 39.23176331 21.29296875 40.2578125 C21.28872391 41.27600067 21.28447906 42.29418884 21.28010559 43.3432312 C21.26327579 46.60408673 21.22561546 49.86433041 21.1875 53.125 C21.17245874 55.33202234 21.15876937 57.53905434 21.14648438 59.74609375 C21.1133583 65.16427223 21.06311653 70.58209242 21 76 C14.35169194 78.21610269 7.00793201 77 0 77 C0 51.59 0 26.18 0 0 Z " fill="#576265" transform="translate(461,131)"/>
<path d="M0 0 C0.33 0 0.66 0 1 0 C1 17.82 1 35.64 1 54 C1.66 54 2.32 54 3 54 C3 54.66 3 55.32 3 56 C-0.31248187 56.02888146 -3.62493167 56.04675799 -6.9375 56.0625 C-7.88302734 56.07087891 -8.82855469 56.07925781 -9.80273438 56.08789062 C-11.15141602 56.09272461 -11.15141602 56.09272461 -12.52734375 56.09765625 C-13.77632446 56.10551147 -13.77632446 56.10551147 -15.05053711 56.11352539 C-17 56 -17 56 -18 55 C-18.10869699 53.50697527 -18.14902922 52.0088902 -18.16113281 50.51196289 C-18.17074036 49.55749771 -18.1803479 48.60303253 -18.19024658 47.61964417 C-18.19449646 46.58113815 -18.19874634 45.54263214 -18.203125 44.47265625 C-18.20882507 43.41340439 -18.21452515 42.35415253 -18.22039795 41.26280212 C-18.22986365 39.01741541 -18.23638813 36.7720147 -18.24023438 34.52661133 C-18.24994884 31.08064731 -18.28096153 27.63527721 -18.3125 24.18945312 C-18.3190287 22.01302439 -18.32427969 19.83659138 -18.328125 17.66015625 C-18.3404718 16.62367447 -18.3528186 15.58719269 -18.36553955 14.51930237 C-18.36253845 13.56168503 -18.35953735 12.60406769 -18.35644531 11.61743164 C-18.36009094 10.77217422 -18.36373657 9.92691681 -18.36749268 9.05604553 C-18.1855838 8.03830299 -18.1855838 8.03830299 -18 7 C-17.01 6.34 -16.02 5.68 -15 5 C-15 20.84 -15 36.68 -15 53 C-10.05 53 -5.1 53 0 53 C0 35.51 0 18.02 0 0 Z " fill="#344448" transform="translate(575,152)"/>
<path d="M0 0 C0.80211914 0.00499512 1.60423828 0.00999023 2.43066406 0.01513672 C3.43838867 0.03334473 4.44611328 0.05155273 5.484375 0.0703125 C8.701875 0.1115625 11.919375 0.1528125 15.234375 0.1953125 C15.234375 12.4053125 15.234375 24.6153125 15.234375 37.1953125 C2.694375 37.1953125 -9.845625 37.1953125 -22.765625 37.1953125 C-22.765625 25.3153125 -22.765625 13.4353125 -22.765625 1.1953125 C-22.435625 1.1953125 -22.105625 1.1953125 -21.765625 1.1953125 C-21.435625 12.4153125 -21.105625 23.6353125 -20.765625 35.1953125 C-9.545625 35.1953125 1.674375 35.1953125 13.234375 35.1953125 C13.234375 24.3053125 13.234375 13.4153125 13.234375 2.1953125 C5.974375 2.1953125 -1.285625 2.1953125 -8.765625 2.1953125 C-5.02111768 0.32305884 -3.91535309 -0.05019683 0 0 Z " fill="#F38336" transform="translate(230.765625,156.8046875)"/>
<path d="M0 0 C1.83151579 3.12751699 2.2317191 5.33030892 2.15112305 8.9362793 C2.13417892 9.91376633 2.1172348 10.89125336 2.09977722 11.89836121 C2.07071793 12.9463942 2.04165863 13.99442719 2.01171875 15.07421875 C1.98906448 16.15379349 1.96641022 17.23336823 1.94306946 18.34565735 C1.89315217 20.62451285 1.83819405 22.90326272 1.77856445 25.18188477 C1.68758465 28.68424132 1.6130127 32.18666004 1.54101562 35.68945312 C1.49054636 37.90106385 1.43914629 40.11265358 1.38671875 42.32421875 C1.36373215 43.37832443 1.34074554 44.43243011 1.31706238 45.51847839 C1.29066177 46.48650894 1.26426117 47.45453949 1.23706055 48.4519043 C1.20469551 49.73619576 1.20469551 49.73619576 1.17167664 51.0464325 C1 53 1 53 0 54 C-1.4887186 54.08669432 -2.981445 54.10703494 -4.47265625 54.09765625 C-5.37177734 54.09443359 -6.27089844 54.09121094 -7.19726562 54.08789062 C-8.61555664 54.07532227 -8.61555664 54.07532227 -10.0625 54.0625 C-11.01189453 54.05798828 -11.96128906 54.05347656 -12.93945312 54.04882812 C-15.29303065 54.0370011 -17.64648477 54.02052025 -20 54 C-20 53.34 -20 52.68 -20 52 C-16.81175432 50.40587716 -13.37103338 50.89825265 -9.875 50.9375 C-9.12089844 50.94201172 -8.36679687 50.94652344 -7.58984375 50.95117188 C-5.72652873 50.96296501 -3.86325445 50.98090058 -2 51 C-2.00444122 50.42006287 -2.00888245 49.84012573 -2.01345825 49.24261475 C-2.05769569 43.20815494 -2.08786816 37.17374118 -2.10986328 31.13916016 C-2.11992253 28.88686248 -2.13357146 26.63457786 -2.15087891 24.38232422 C-2.17513031 21.14547502 -2.1864839 17.90879845 -2.1953125 14.671875 C-2.20563507 13.66445251 -2.21595764 12.65703003 -2.22659302 11.61907959 C-2.22674408 10.67840637 -2.22689514 9.73773315 -2.22705078 8.76855469 C-2.231492 7.94248718 -2.23593323 7.11641968 -2.24050903 6.26531982 C-1.97643263 3.77802236 -1.24570507 2.15066625 0 0 Z " fill="#4B5356" transform="translate(529,154)"/>
<path d="M0 0 C11.88 0 23.76 0 36 0 C36 11.88 36 23.76 36 36 C24.12 36 12.24 36 0 36 C0 35.67 0 35.34 0 35 C11.22 35 22.44 35 34 35 C34 24.11 34 13.22 34 2 C22.78 2 11.56 2 0 2 C0 1.34 0 0.68 0 0 Z " fill="#F05E08" transform="translate(210,110)"/>
<path d="M0 0 C0.33 0 0.66 0 1 0 C1.14536862 7.16343586 1.28737213 14.32693328 1.42724609 21.49047852 C1.4750091 23.91757652 1.52348844 26.34466055 1.57275391 28.77172852 C1.87827631 43.85144135 2.05379574 58.9170203 2 74 C7.94 74 13.88 74 20 74 C20 61.79 20 49.58 20 37 C20.33 37 20.66 37 21 37 C21 49.87 21 62.74 21 76 C17.720625 76.020625 14.44125 76.04125 11.0625 76.0625 C10.02746338 76.071604 8.99242676 76.08070801 7.92602539 76.09008789 C7.11641357 76.09258545 6.30680176 76.09508301 5.47265625 76.09765625 C4.64000244 76.10289307 3.80734863 76.10812988 2.94946289 76.11352539 C1 76 1 76 0 75 C-0.09492722 72.65746218 -0.12559791 70.34453896 -0.11352539 68.00170898 C-0.11367142 67.27004517 -0.11381744 66.53838135 -0.1139679 65.7845459 C-0.11326867 63.35503216 -0.10547585 60.92559417 -0.09765625 58.49609375 C-0.0957921 56.81600486 -0.09436819 55.13591543 -0.09336853 53.45582581 C-0.08954307 49.02526357 -0.07971256 44.5947339 -0.06866455 40.16418457 C-0.05845103 35.64657024 -0.05387104 31.12895066 -0.04882812 26.61132812 C-0.03809031 17.74087107 -0.02101356 8.87043824 0 0 Z " fill="#666E70" transform="translate(818,132)"/>
<path d="M0 0 C0.99 0 1.98 0 3 0 C3.19441368 2.2910905 3.38033135 4.58290337 3.5625 6.875 C3.71912109 8.78925781 3.71912109 8.78925781 3.87890625 10.7421875 C4 14 4 14 3 16 C-15.15 16 -33.3 16 -52 16 C-52.33 15.01 -52.66 14.02 -53 13 C-35.18 13 -17.36 13 1 13 C1 10.36 1 7.72 1 5 C0.67 5 0.34 5 0 5 C0 3.35 0 1.7 0 0 Z " fill="#374649" transform="translate(661,159)"/>
<path d="M0 0 C0.33 0 0.66 0 1 0 C1 16.5 1 33 1 50 C-5.6 50 -12.2 50 -19 50 C-18.67 49.34 -18.34 48.68 -18 48 C-12.39 48 -6.78 48 -1 48 C-1.00785522 45.92549561 -1.00785522 45.92549561 -1.01586914 43.80908203 C-1.03393119 38.69157556 -1.04543645 33.57407192 -1.05493164 28.45654297 C-1.05996909 26.23909024 -1.06679922 24.02164084 -1.07543945 21.80419922 C-1.08753072 18.62206195 -1.0932341 15.43996849 -1.09765625 12.2578125 C-1.10281754 11.26194122 -1.10797882 10.26606995 -1.11329651 9.24002075 C-1.11340981 7.85881546 -1.11340981 7.85881546 -1.11352539 6.44970703 C-1.115746 5.6369632 -1.11796661 4.82421936 -1.12025452 3.98684692 C-1 2 -1 2 0 0 Z " fill="#373F41" transform="translate(695,158)"/>
<path d="M0 0 C6.27 0 12.54 0 19 0 C19.33 0.66 19.66 1.32 20 2 C19.34 2 18.68 2 18 2 C17.67 3.32 17.34 4.64 17 6 C17 5.01 17 4.02 17 3 C12.38 3 7.76 3 3 3 C3 26.43 3 49.86 3 74 C2.67 74 2.34 74 2 74 C2 50.24 2 26.48 2 2 C1.34 2 0.68 2 0 2 C0 1.34 0 0.68 0 0 Z " fill="#3C4A4C" transform="translate(429,131)"/>
<path d="M0 0 C0.33 0 0.66 0 1 0 C1.33 15.51 1.66 31.02 2 47 C-1.83567829 47.95891957 -4.82281141 48.10177189 -8.75 48.0625 C-9.92046875 48.05347656 -11.0909375 48.04445312 -12.296875 48.03515625 C-13.18890625 48.02355469 -14.0809375 48.01195312 -15 48 C-15.495 46.515 -15.495 46.515 -16 45 C-11.38 44.67 -6.76 44.34 -2 44 C-1.97494385 42.98687744 -1.9498877 41.97375488 -1.92407227 40.92993164 C-1.82915355 37.13343921 -1.72914713 33.33709423 -1.62768555 29.54077148 C-1.58465327 27.90473913 -1.54295935 26.26867095 -1.50268555 24.63256836 C-1.08904092 7.89783459 -1.08904092 7.89783459 0 0 Z " fill="#1A2224" transform="translate(447,160)"/>
<path d="M0 0 C0.33 0 0.66 0 1 0 C2.17425756 15.66375706 2.09665105 31.29957335 2 47 C8.27 47 14.54 47 21 47 C21 47.66 21 48.32 21 49 C17.68751813 49.02888146 14.37506833 49.04675799 11.0625 49.0625 C10.11697266 49.07087891 9.17144531 49.07925781 8.19726562 49.08789062 C6.84858398 49.09272461 6.84858398 49.09272461 5.47265625 49.09765625 C4.22367554 49.10551147 4.22367554 49.10551147 2.94946289 49.11352539 C1 49 1 49 0 48 C-0.09311889 46.49581261 -0.11746028 44.98728644 -0.11352539 43.48022461 C-0.11344986 42.51930405 -0.11337433 41.55838348 -0.11329651 40.56834412 C-0.10813522 39.523564 -0.10297394 38.47878387 -0.09765625 37.40234375 C-0.0962413 36.33834854 -0.09482635 35.27435333 -0.09336853 34.17811584 C-0.08775064 30.76454917 -0.07519511 27.351047 -0.0625 23.9375 C-0.05748731 21.62955824 -0.052924 19.32161545 -0.04882812 17.01367188 C-0.0377754 11.34242574 -0.02101987 5.67121747 0 0 Z " fill="#6D7172" transform="translate(557,159)"/>
<path d="M0 0 C4.98012761 1.50912958 8.24259942 4.55661849 12 8 C10.02 8.99 10.02 8.99 8 10 C8 9.01 8 8.02 8 7 C6.68 6.34 5.36 5.68 4 5 C4 4.34 4 3.68 4 3 C0.61944932 4.12685023 -0.1079382 5.05384625 -2.3125 7.75 C-5.31266411 11.28409162 -8.27980468 14.23148255 -12 17 C-12.66 17 -13.32 17 -14 17 C-14.433125 17.61875 -14.86625 18.2375 -15.3125 18.875 C-17.36125303 21.45491123 -18.83965247 22.15210188 -22 23 C-24.16015625 22.54296875 -24.16015625 22.54296875 -26 22 C-25.31035156 21.5875 -24.62070313 21.175 -23.91015625 20.75 C-14.54609338 14.99540444 -6.92734788 8.52596663 0 0 Z " fill="#F16A07" transform="translate(255,191)"/>
<path d="M0 0 C6.93 0 13.86 0 21 0 C21.04125 3.09375 21.0825 6.1875 21.125 9.375 C21.14320801 10.34872559 21.16141602 11.32245117 21.18017578 12.32568359 C21.1851709 13.09219238 21.19016602 13.85870117 21.1953125 14.6484375 C21.20578613 15.43395996 21.21625977 16.21948242 21.22705078 17.02880859 C21 19 21 19 19 21 C19 15.06 19 9.12 19 3 C13.72 3 8.44 3 3 3 C3 8.94 3 14.88 3 21 C2.67 21 2.34 21 2 21 C2 14.73 2 8.46 2 2 C1.34 2 0.68 2 0 2 C0 1.34 0 0.68 0 0 Z " fill="#414A4C" transform="translate(768,111)"/>
<path d="M0 0 C6.27 0 12.54 0 19 0 C19 3.3 19 6.6 19 10 C18.01 10.495 18.01 10.495 17 11 C17 8.03 17 5.06 17 2 C11.72 2 6.44 2 1 2 C1 18.83 1 35.66 1 53 C0.67 53 0.34 53 0 53 C0 35.51 0 18.02 0 0 Z " fill="#000102" transform="translate(819,132)"/>
<path d="M0 0 C0.33 0 0.66 0 1 0 C0.99333817 0.98932022 0.99333817 0.98932022 0.98654175 1.99862671 C0.94240223 8.84378906 0.91217274 15.68891121 0.89013672 22.53417969 C0.88005962 25.09116253 0.86639774 27.64813379 0.84912109 30.20507812 C0.82494783 33.87372692 0.81353415 37.54222379 0.8046875 41.2109375 C0.79436493 42.35992523 0.78404236 43.50891296 0.77340698 44.69271851 C0.77325592 45.7536673 0.77310486 46.81461609 0.77294922 47.90771484 C0.76628738 49.31336197 0.76628738 49.31336197 0.75949097 50.74740601 C0.7830677 53.20176071 0.7830677 53.20176071 3 55 C-3.6 55 -10.2 55 -17 55 C-17 54.01 -17 53.02 -17 52 C-11.39 52 -5.78 52 0 52 C0 34.84 0 17.68 0 0 Z " fill="#2C3E42" transform="translate(745,153)"/>
<path d="M0 0 C6.6 0 13.2 0 20 0 C20 5.61 20 11.22 20 17 C13.4 17 6.8 17 0 17 C-0.33 16.34 -0.66 15.68 -1 15 C5.27 15 11.54 15 18 15 C18 10.38 18 5.76 18 1 C12.06 1 6.12 1 0 1 C0 0.67 0 0.34 0 0 Z " fill="#081318" transform="translate(789,132)"/>
<path d="M0 0 C11.2705084 3.88068787 21.83185559 14.17698781 29.421875 23.16796875 C30.96070323 25.02261552 30.96070323 25.02261552 32.72265625 26.6015625 C33.14417969 27.06304687 33.56570313 27.52453125 34 28 C33.6875 30.1875 33.6875 30.1875 33 32 C32.01 32 31.02 32 30 32 C30.22397461 31.40977051 30.44794922 30.81954102 30.67871094 30.21142578 C31.25376917 27.97391615 31.25376917 27.97391615 29.87597656 26.29248047 C29.30331055 25.73963379 28.73064453 25.18678711 28.140625 24.6171875 C27.51929688 24.00746094 26.89796875 23.39773437 26.2578125 22.76953125 C25.26394531 21.83173828 25.26394531 21.83173828 24.25 20.875 C23.60289062 20.24207031 22.95578125 19.60914062 22.2890625 18.95703125 C19.60779717 16.35852102 17.11773233 14.07848822 14 12 C14 11.34 14 10.68 14 10 C13.42765625 9.71382812 12.8553125 9.42765625 12.265625 9.1328125 C8.84375 7.421875 5.421875 5.7109375 2 4 C2 3.34 2 2.68 2 2 C1.34 2 0.68 2 0 2 C0 1.34 0 0.68 0 0 Z " fill="#F05311" transform="translate(252,57)"/>
<path d="M0 0 C0 4.62 0 9.24 0 14 C-4.97589756 15.65863252 -7.40665467 16.23540767 -12.375 16.125 C-13.43460938 16.10695312 -14.49421875 16.08890625 -15.5859375 16.0703125 C-16.38257813 16.04710937 -17.17921875 16.02390625 -18 16 C-18 15.34 -18 14.68 -18 14 C-12.72 13.34 -7.44 12.68 -2 12 C-2.33 8.37 -2.66 4.74 -3 1 C-1 0 -1 0 0 0 Z " fill="#1D2527" transform="translate(807,193)"/>
<path d="M0 0 C4.29 0 8.58 0 13 0 C13 0.33 13 0.66 13 1 C9.37 1 5.74 1 2 1 C2 5.62 2 10.24 2 15 C5.63 15 9.26 15 13 15 C12.67 15.66 12.34 16.32 12 17 C8.04 17 4.08 17 0 17 C0 11.39 0 5.78 0 0 Z " fill="#051015" transform="translate(755,132)"/>
<path d="M0 0 C0 0.99 0 1.98 0 3 C-0.99 3 -1.98 3 -3 3 C-3 2.34 -3 1.68 -3 1 C-4.32 1 -5.64 1 -7 1 C-7 1.66 -7 2.32 -7 3 C-8.175625 3.12375 -8.175625 3.12375 -9.375 3.25 C-12.14749104 3.72806339 -12.14749104 3.72806339 -13.3125 6.0625 C-13.539375 6.701875 -13.76625 7.34125 -14 8 C-14.66 8 -15.32 8 -16 8 C-16 10.31 -16 12.62 -16 15 C-15.34 15 -14.68 15 -14 15 C-14.33 15.66 -14.66 16.32 -15 17 C-15.66 17 -16.32 17 -17 17 C-18.33764554 9.82535576 -18.33764554 9.82535576 -16.875 6.25 C-14.32213311 3.18655974 -11.77695138 0.74517316 -8.0625 -0.8125 C-5.25625802 -1.06761291 -2.74768039 -0.56202553 0 0 Z " fill="#333B3D" transform="translate(443,100)"/>
<path d="M0 0 C3.61328125 0.03255208 7.2265625 0.06510417 10.83984375 0.09765625 C10.83984375 5.37765625 10.83984375 10.65765625 10.83984375 16.09765625 C10.50984375 16.09765625 10.17984375 16.09765625 9.83984375 16.09765625 C9.50984375 11.80765625 9.17984375 7.51765625 8.83984375 3.09765625 C7.84984375 3.59265625 7.84984375 3.59265625 6.83984375 4.09765625 C-0.53576601 4.56594893 -0.53576601 4.56594893 -3.16015625 2.59765625 C-3.49015625 2.10265625 -3.82015625 1.60765625 -4.16015625 1.09765625 C-3.16015625 0.09765625 -3.16015625 0.09765625 0 0 Z " fill="#505A5C" transform="translate(797.16015625,190.90234375)"/>
<path d="M0 0 C5.94 0 11.88 0 18 0 C18 3.3 18 6.6 18 10 C17.01 10.495 17.01 10.495 16 11 C16 8.03 16 5.06 16 2 C10.72 2 5.44 2 0 2 C0 1.34 0 0.68 0 0 Z " fill="#0A161C" transform="translate(820,132)"/>
<path d="M0 0 C0.99 0 1.98 0 3 0 C3 4.95 3 9.9 3 15 C2.34 15 1.68 15 1 15 C1 17.97 1 20.94 1 24 C0.67 24 0.34 24 0 24 C0 16.08 0 8.16 0 0 Z " fill="#384244" transform="translate(446,145)"/>
<path d="M0 0 C4.73684211 1.84210526 4.73684211 1.84210526 6.71875 3.03125 C9.88850691 4.37731115 12.82267173 4.43459287 16.25 4.625 C17.51328125 4.69976562 18.7765625 4.77453125 20.078125 4.8515625 C21.04234375 4.90054688 22.0065625 4.94953125 23 5 C23 5.33 23 5.66 23 6 C20.03 6 17.06 6 14 6 C14 6.66 14 7.32 14 8 C6.25 7.25 6.25 7.25 4 5 C2.65705519 3.34106818 1.32255312 1.67523395 0 0 Z " fill="#2C3A3E" transform="translate(775,201)"/>
<path d="M0 0 C2.95887459 -0.08069658 5.9155659 -0.14034665 8.875 -0.1875 C9.71675781 -0.21263672 10.55851563 -0.23777344 11.42578125 -0.26367188 C12.23144531 -0.27333984 13.03710938 -0.28300781 13.8671875 -0.29296875 C14.98262939 -0.31653442 14.98262939 -0.31653442 16.12060547 -0.34057617 C17.05090576 -0.17199097 17.05090576 -0.17199097 18 0 C18.66 0.99 19.32 1.98 20 3 C13.4 3 6.8 3 0 3 C0 2.01 0 1.02 0 0 Z " fill="#7B8486" transform="translate(728,205)"/>
<path d="M0 0 C4.98012761 1.50912958 8.24259942 4.55661849 12 8 C10.02 8.99 10.02 8.99 8 10 C8 9.01 8 8.02 8 7 C6.68 6.34 5.36 5.68 4 5 C4 4.34 4 3.68 4 3 C3.4225 3.350625 2.845 3.70125 2.25 4.0625 C-0.35801776 5.14917407 -1.39417629 4.93065133 -4 4 C-2.68 2.68 -1.36 1.36 0 0 Z " fill="#F37529" transform="translate(255,191)"/>
<path d="M0 0 C0.33 0 0.66 0 1 0 C1.49519515 4.15963927 1.297257 5.6143693 -1.3125 9 C-1.76625 9.48726562 -2.22 9.97453125 -2.6875 10.4765625 C-4.63369009 12.73553314 -5.77859884 15.3000606 -7 18 C-7.66 18 -8.32 18 -9 18 C-7.6510689 13.48548686 -5.83381706 9.67722719 -3.4375 5.625 C-2.81746094 4.56539063 -2.19742188 3.50578125 -1.55859375 2.4140625 C-0.78708984 1.21910156 -0.78708984 1.21910156 0 0 Z " fill="#F26C1F" transform="translate(108,87)"/>
<path d="M0 0 C4.77493547 1.28958111 7.60324798 3.05329925 11.1875 6.4375 C12.02667969 7.21996094 12.86585938 8.00242187 13.73046875 8.80859375 C15.5053499 10.52237744 17.26681309 12.24423085 19 14 C18.67 14.99 18.34 15.98 18 17 C17.40832031 16.30132812 16.81664062 15.60265625 16.20703125 14.8828125 C15.41683594 13.97273438 14.62664062 13.06265625 13.8125 12.125 C13.03519531 11.22007813 12.25789063 10.31515625 11.45703125 9.3828125 C8.96800695 6.96897335 7.20439931 6.15358375 4 5 C1.6875 2.375 1.6875 2.375 0 0 Z " fill="#191F21" transform="translate(397,106)"/>
<path d="M0 0 C2.48221257 3.15573977 4.49961761 6.45876483 6.5 9.9375 C9.06552406 14.39139862 9.06552406 14.39139862 11.78125 18.75390625 C12.1834375 19.49511719 12.585625 20.23632812 13 21 C12.67 21.66 12.34 22.32 12 23 C0 6.74639769 0 6.74639769 0 0 Z " fill="#F05F1D" transform="translate(99,194)"/>
<path d="M0 0 C5.61 0 11.22 0 17 0 C17 0.99 17 1.98 17 3 C11.72 3 6.44 3 1 3 C0.67 2.01 0.34 1.02 0 0 Z " fill="#323A3C" transform="translate(431,205)"/>
<path d="M0 0 C0.66 0.99 1.32 1.98 2 3 C-0.1875 5.5625 -0.1875 5.5625 -3 8 C-5.5 8.1875 -5.5 8.1875 -8 7 C-9.89571838 5.10947536 -11.39126012 3.16030784 -13 1 C-10.33333333 2.33333333 -7.66666667 3.66666667 -5 5 C-3.35 3.35 -1.7 1.7 0 0 Z " fill="#1E2629" transform="translate(532,135)"/>
<path d="M0 0 C0.99 0.33 1.98 0.66 3 1 C3 1.66 3 2.32 3 3 C-0.31070838 4.00109515 -3.30084769 4.10356134 -6.75 4.0625 C-7.73484375 4.05347656 -8.7196875 4.04445312 -9.734375 4.03515625 C-10.48203125 4.02355469 -11.2296875 4.01195312 -12 4 C-12 3.01 -12 2.02 -12 1 C-11.21753906 1.01160156 -10.43507813 1.02320313 -9.62890625 1.03515625 C-8.61699219 1.04417969 -7.60507812 1.05320313 -6.5625 1.0625 C-5.04849609 1.07990234 -5.04849609 1.07990234 -3.50390625 1.09765625 C-1.05978933 1.28612676 -1.05978933 1.28612676 0 0 Z " fill="#364245" transform="translate(901,205)"/>
<path d="M0 0 C0.66 0.99 1.32 1.98 2 3 C1.401875 3.0825 0.80375 3.165 0.1875 3.25 C-2.15070487 3.82087979 -2.15070487 3.82087979 -3.4375 5.9375 C-5.39474151 8.52105879 -6.89373472 9.16661175 -10 10 C-12.16015625 9.54296875 -12.16015625 9.54296875 -14 9 C-13.24074219 8.51789063 -12.48148438 8.03578125 -11.69921875 7.5390625 C-10.70535156 6.90742188 -9.71148437 6.27578125 -8.6875 5.625 C-7.70136719 4.99851563 -6.71523437 4.37203125 -5.69921875 3.7265625 C-3.78712071 2.50348387 -1.8885966 1.2590644 0 0 Z " fill="#F3691C" transform="translate(243,204)"/>
<path d="M0 0 C0.99 0 1.98 0 3 0 C2.88570603 1.77155654 2.75816963 3.54226229 2.625 5.3125 C2.52058594 6.79169922 2.52058594 6.79169922 2.4140625 8.30078125 C2 11 2 11 0 14 C-1.86987216 10.26025568 -1.30641834 5.53209172 -0.5 1.5 C-0.335 1.005 -0.17 0.51 0 0 Z " fill="#40484A" transform="translate(869,178)"/>
<path d="M0 0 C0.66 0.33 1.32 0.66 2 1 C-1.06674243 4.24198486 -3.8690805 7.19934278 -8 9 C-10.15234375 8.06640625 -10.15234375 8.06640625 -12 7 C-10.04754815 5.80285445 -8.08785003 4.61751926 -6.125 3.4375 C-5.03445313 2.77621094 -3.94390625 2.11492187 -2.8203125 1.43359375 C-1.88960938 0.96050781 -0.95890625 0.48742187 0 0 Z " fill="#313C3F" transform="translate(413,127)"/>
<path d="M0 0 C4.15151338 1.44202476 7.29978445 3.5010438 10.8125 6.125 C11.78832031 6.84945312 12.76414062 7.57390625 13.76953125 8.3203125 C14.50558594 8.87460938 15.24164063 9.42890625 16 10 C15.34 10.66 14.68 11.32 14 12 C14 11.34 14 10.68 14 10 C13.42765625 9.71382812 12.8553125 9.42765625 12.265625 9.1328125 C8.84375 7.421875 5.421875 5.7109375 2 4 C2 3.34 2 2.68 2 2 C1.34 2 0.68 2 0 2 C0 1.34 0 0.68 0 0 Z " fill="#F16620" transform="translate(252,57)"/>
<path d="M0 0 C1.45792884 -0.05399736 2.91642712 -0.09279177 4.375 -0.125 C5.18710937 -0.14820312 5.99921875 -0.17140625 6.8359375 -0.1953125 C9 0 9 0 11 2 C9.75283203 2.19916016 9.75283203 2.19916016 8.48046875 2.40234375 C7.39378906 2.57894531 6.30710937 2.75554687 5.1875 2.9375 C4.10855469 3.11152344 3.02960938 3.28554687 1.91796875 3.46484375 C-1.04933356 3.93871921 -1.04933356 3.93871921 -4 5 C-4 4.34 -4 3.68 -4 3 C-2.68 2.67 -1.36 2.34 0 2 C0 1.34 0 0.68 0 0 Z " fill="#3A4143" transform="translate(362,120)"/>
<path d="M0 0 C2.6855594 2.6855594 3.06049974 5.37621328 4 9 C3.01 9 2.02 9 1 9 C-2 3.25 -2 3.25 -2 1 C-1.34 0.67 -0.68 0.34 0 0 Z " fill="#333D41" transform="translate(326,175)"/>
<path d="M0 0 C0.99 0 1.98 0 3 0 C2.88637738 1.4800841 2.75877092 2.95910074 2.625 4.4375 C2.52058594 5.67306641 2.52058594 5.67306641 2.4140625 6.93359375 C2.27742188 7.61550781 2.14078125 8.29742187 2 9 C1.01 9.495 1.01 9.495 0 10 C-0.74926071 6.33694766 -1.2380014 3.57644848 0 0 Z " fill="#F27615" transform="translate(92,124)"/>
<path d="M0 0 C4.16138263 -0.08159574 7.9472484 0.01751476 12 1 C8.00439392 3.83022097 4.57262677 2.76210446 0 2 C0 1.34 0 0.68 0 0 Z " fill="#3C4243" transform="translate(369,207)"/>
<path d="M0 0 C-0.1875 1.8125 -0.1875 1.8125 -1 4 C-3.4375 5.8125 -3.4375 5.8125 -6 7 C-6.66 6.67 -7.32 6.34 -8 6 C-7.0479279 4.99403703 -6.08812654 3.99538437 -5.125 3 C-4.59132813 2.443125 -4.05765625 1.88625 -3.5078125 1.3125 C-2 0 -2 0 0 0 Z " fill="#1D2629" transform="translate(401,178)"/>
<path d="M0 0 C0.66 0 1.32 0 2 0 C2 0.99 2 1.98 2 3 C2.66 3 3.32 3 4 3 C4.66 4.98 5.32 6.96 6 9 C5.01 9.33 4.02 9.66 3 10 C2.01 6.7 1.02 3.4 0 0 Z " fill="#2E393C" transform="translate(639,149)"/>
<path d="M0 0 C0.66 0.33 1.32 0.66 2 1 C-4.27692308 5.06153846 -4.27692308 5.06153846 -7.9375 4.75 C-8.618125 4.5025 -9.29875 4.255 -10 4 C-7.42233201 1.42233201 -5.54119318 1.51642401 -2 1 C-1.34 0.67 -0.68 0.34 0 0 Z " fill="#1D2527" transform="translate(401,201)"/>
<path d="M0 0 C3.08089673 2.77280706 4.68775452 5.06326356 6 9 C5.34 9.66 4.68 10.32 4 11 C0.85041169 7.57653445 0.43820891 4.55737263 0 0 Z " fill="#313E41" transform="translate(606,175)"/>
<path d="M0 0 C0.33 2.97 0.66 5.94 1 9 C0.01 9.33 -0.98 9.66 -2 10 C-2.33 7.03 -2.66 4.06 -3 1 C-1 0 -1 0 0 0 Z " fill="#3C484C" transform="translate(343,158)"/>
<path d="M0 0 C0.66 0.33 1.32 0.66 2 1 C2.29296875 7.0546875 2.29296875 7.0546875 2 9 C1.01 9.66 0.02 10.32 -1 11 C-1.0270043 9.54176788 -1.04639787 8.08339325 -1.0625 6.625 C-1.07410156 5.81289062 -1.08570313 5.00078125 -1.09765625 4.1640625 C-1 2 -1 2 0 0 Z " fill="#354246" transform="translate(341,142)"/>
<path d="M0 0 C2.88575819 0.39803561 3.82189513 0.79009069 5.75 3.0625 C6.1625 3.701875 6.575 4.34125 7 5 C6.34 5.66 5.68 6.32 5 7 C3.29115995 5.37660195 1.62553283 3.70680947 0 2 C0 1.34 0 0.68 0 0 Z " fill="#384143" transform="translate(565,135)"/>
<path d="M0 0 C0.33 0.66 0.66 1.32 1 2 C-2.27185553 3.07310858 -4.42947592 2.89263102 -7.75 2.0625 C-8.54921875 1.86785156 -9.3484375 1.67320313 -10.171875 1.47265625 C-10.77515625 1.31667969 -11.3784375 1.16070312 -12 1 C-7.58915004 -1.57712582 -4.91561622 -0.96700647 0 0 Z " fill="#3F484A" transform="translate(388,121)"/>
<path d="M0 0 C2.64 0 5.28 0 8 0 C8.66 1.32 9.32 2.64 10 4 C8.51882199 3.71872579 7.04006751 3.42466268 5.5625 3.125 C4.73878906 2.96257812 3.91507813 2.80015625 3.06640625 2.6328125 C2.38449219 2.42398438 1.70257813 2.21515625 1 2 C0.67 1.34 0.34 0.68 0 0 Z " fill="#F26917" transform="translate(213,82)"/>
<path d="M0 0 C0 3.61537605 -0.89229241 5.11165997 -3 8 C-3.99 8 -4.98 8 -6 8 C-4.55746343 4.63408134 -2.66735273 2.48952921 0 0 Z " fill="#F36A1A" transform="translate(120,73)"/>
<path d="M0 0 C1.96301592 3.50538557 2.95902388 7.13351728 4 11 C3.34 11 2.68 11 2 11 C1.67 9.68 1.34 8.36 1 7 C0.34 7 -0.32 7 -1 7 C-0.67 4.69 -0.34 2.38 0 0 Z " fill="#F3722A" transform="translate(132,168)"/>
<path d="M0 0 C0.66 0 1.32 0 2 0 C2 1.65 2 3.3 2 5 C1.34 5 0.68 5 0 5 C0 7.97 0 10.94 0 14 C-0.33 14 -0.66 14 -1 14 C-1.02694851 12.04174127 -1.04637218 10.08337774 -1.0625 8.125 C-1.07410156 7.03445312 -1.08570313 5.94390625 -1.09765625 4.8203125 C-1 2 -1 2 0 0 Z " fill="#455154" transform="translate(447,155)"/>
<path d="M0 0 C2.31 1.98 4.62 3.96 7 6 C6.67 6.99 6.34 7.98 6 9 C4.99406757 7.8803014 3.9954151 6.7540588 3 5.625 C2.443125 4.99851563 1.88625 4.37203125 1.3125 3.7265625 C0 2 0 2 0 0 Z " fill="#F26929" transform="translate(115,220)"/>
<path d="M0 0 C0.99 0.66 1.98 1.32 3 2 C0.36 2.99 -2.28 3.98 -5 5 C-5.66 4.34 -6.32 3.68 -7 3 C-3.6875 1.375 -3.6875 1.375 0 0 Z " fill="#374244" transform="translate(894,145)"/>
<path d="M0 0 C0.66 0.33 1.32 0.66 2 1 C-1.96 4.465 -1.96 4.465 -6 8 C-6.66 7.67 -7.32 7.34 -8 7 C-3.79411765 1.26470588 -3.79411765 1.26470588 0 0 Z " fill="#314145" transform="translate(342,112)"/>
<path d="M0 0 C0 0.66 0 1.32 0 2 C-1.97746603 2.73080266 -3.98072489 3.39421747 -6 4 C-6.66 3.67 -7.32 3.34 -8 3 C-8 2.34 -8 1.68 -8 1 C-5.07175348 0.02391783 -3.04386724 -0.08226668 0 0 Z " fill="#F16C17" transform="translate(166,46)"/>
<path d="M0 0 C0.66 0.33 1.32 0.66 2 1 C2.82804069 3.48412207 3 5.35220307 3 8 C1.68 7.34 0.36 6.68 -1 6 C-1.042721 4.33388095 -1.04063832 2.66617115 -1 1 C-0.67 0.67 -0.34 0.34 0 0 Z " fill="#344043" transform="translate(876,142)"/>
<path d="M0 0 C2.97 0.495 2.97 0.495 6 1 C6.33 2.32 6.66 3.64 7 5 C4.0625 4.1875 4.0625 4.1875 1 3 C0.67 2.01 0.34 1.02 0 0 Z " fill="#394346" transform="translate(400,176)"/>
<path d="M0 0 C2.64 0 5.28 0 8 0 C8 0.99 8 1.98 8 3 C6.02 3 4.04 3 2 3 C2 2.34 2 1.68 2 1 C1.34 0.67 0.68 0.34 0 0 Z " fill="#152125" transform="translate(370,101)"/>
<path d="M0 0 C5.75 -0.125 5.75 -0.125 8 1 C8 1.66 8 2.32 8 3 C5.36 3 2.72 3 0 3 C0 2.01 0 1.02 0 0 Z " fill="#364448" transform="translate(364,101)"/>
<path d="M0 0 C2.88437779 1.29299694 4.87219421 2.65941363 7 5 C5.68 5.33 4.36 5.66 3 6 C3 5.01 3 4.02 3 3 C2.01 2.67 1.02 2.34 0 2 C0 1.34 0 0.68 0 0 Z " fill="#F06B1C" transform="translate(260,195)"/>
<path d="M0 0 C2.875 -0.125 2.875 -0.125 6 0 C8 2 8 2 8 4 C4.31245243 3.50168276 2.39509338 2.89932357 0 0 Z " fill="#364346" transform="translate(356,186)"/>
<path d="M0 0 C0.99 0.33 1.98 0.66 3 1 C3 1.99 3 2.98 3 4 C-0.3 3.67 -3.6 3.34 -7 3 C-7 2.67 -7 2.34 -7 2 C-4.69 2 -2.38 2 0 2 C0 1.34 0 0.68 0 0 Z " fill="#4F5A5D" transform="translate(500,146)"/>
<path d="M0 0 C0.66 0 1.32 0 2 0 C2 0.66 2 1.32 2 2 C4.97 2.495 4.97 2.495 8 3 C7.01 4.485 7.01 4.485 6 6 C3.37812506 4.95125002 2.20628639 4.35068687 0.75 1.875 C0.5025 1.25625 0.255 0.6375 0 0 Z " fill="#F16C31" transform="translate(251,106)"/>
</svg>
